<svg width="current" height="current" viewBox="0 0 346 64" fill="#000000" xmlns="http://www.w3.org/2000/svg">
<path d="M339.14 7.49707V16.7258H345.946V22.5571H339.14V33.2563H332.737V7.49707H339.14ZM313.982 25.4981C311.663 28.5743 307.966 31.397 302.891 33.9662L299.916 28.7433C303.748 26.7151 306.554 24.6023 308.336 22.405C310.15 20.2076 311.142 17.7906 311.31 15.1538H301.731V9.47464H327.292V15.1538H317.562C317.528 16.9455 317.242 18.6526 316.705 20.2753L329.057 27.6278L325.88 32.952L313.982 25.4981ZM328.855 35.3353C331.073 35.3353 333.039 35.7578 334.754 36.6029C336.468 37.4142 337.795 38.5805 338.736 40.1017C339.711 41.6229 340.199 43.3639 340.199 45.3246C340.199 47.319 339.711 49.06 338.736 50.5474C337.795 52.0686 336.468 53.2349 334.754 54.0462C333.039 54.8913 331.073 55.3138 328.855 55.3138H318.52C316.301 55.3138 314.335 54.8913 312.621 54.0462C310.907 53.2349 309.562 52.0686 308.588 50.5474C307.646 49.06 307.176 47.319 307.176 45.3246C307.176 43.3639 307.646 41.6229 308.588 40.1017C309.562 38.5805 310.907 37.4142 312.621 36.6029C314.369 35.7578 316.335 35.3353 318.52 35.3353H328.855ZM327.897 49.5332C329.779 49.5332 331.224 49.1445 332.233 48.367C333.241 47.6233 333.745 46.5922 333.745 45.2738C333.745 43.9893 333.241 42.9751 332.233 42.2314C331.224 41.4539 329.779 41.0652 327.897 41.0652H319.427C317.545 41.0652 316.1 41.4539 315.091 42.2314C314.117 42.9751 313.629 43.9893 313.629 45.2738C313.629 46.5922 314.117 47.6233 315.091 48.367C316.1 49.1445 317.545 49.5332 319.427 49.5332H327.897Z" fill="current"/>
<path d="M291.333 7.49707V16.7258H298.139V22.5571H291.333V33.2563H284.88V7.49707H291.333ZM266.075 24.4332C263.688 27.7461 260.193 30.7378 255.588 33.4084L252.16 28.287C256.227 25.853 259.151 23.3008 260.932 20.6302C262.713 17.9596 263.604 15.0693 263.604 11.9593V8.86616H269.906V11.9593C269.906 14.4608 269.553 16.8103 268.847 19.0076L281.149 27.3742L277.721 32.3942L266.075 24.4332ZM281.048 35.3353C283.266 35.3353 285.233 35.7578 286.947 36.6029C288.661 37.4142 289.989 38.5805 290.93 40.1017C291.904 41.6229 292.392 43.3639 292.392 45.3246C292.392 47.319 291.904 49.06 290.93 50.5474C289.989 52.0686 288.661 53.2349 286.947 54.0462C285.233 54.8913 283.266 55.3138 281.048 55.3138H270.713C268.495 55.3138 266.528 54.8913 264.814 54.0462C263.1 53.2349 261.756 52.0686 260.781 50.5474C259.84 49.06 259.369 47.319 259.369 45.3246C259.369 43.3639 259.84 41.6229 260.781 40.1017C261.756 38.5805 263.1 37.4142 264.814 36.6029C266.562 35.7578 268.528 35.3353 270.713 35.3353H281.048ZM280.09 49.5332C281.972 49.5332 283.418 49.1445 284.426 48.367C285.434 47.6233 285.938 46.5922 285.938 45.2738C285.938 43.9893 285.434 42.9751 284.426 42.2314C283.418 41.4539 281.972 41.0652 280.09 41.0652H271.62C269.738 41.0652 268.293 41.4539 267.285 42.2314C266.31 42.9751 265.822 43.9893 265.822 45.2738C265.822 46.5922 266.31 47.6233 267.285 48.367C268.293 49.1445 269.738 49.5332 271.62 49.5332H280.09Z" fill="current"/>
<path d="M239.745 54.8067V7.44629H246.198V54.8067H239.745ZM213.781 22.7598H225.175V10.1845H231.527V47.3021H207.428V10.1845H213.781V22.7598ZM213.781 28.5911V41.4707H225.175V28.5911H213.781Z" fill="current"/>
<path d="M177.09 15.3597L168.245 35.6477L158.254 15.3597H150.555L164.745 43.5197L158.891 56.6397H166.336L184.535 15.3597H177.09ZM146.228 46.7197H138.91V43.7757C136.301 46.0798 133.119 47.3597 129.301 47.3597C120.52 47.3597 113.711 40.1917 113.711 31.0397C113.711 21.8877 120.584 14.7197 129.301 14.7197C133.119 14.7197 136.301 15.9998 138.91 18.3038V15.3597H146.228V46.7197ZM139.801 31.0397C139.801 25.1517 135.728 20.6718 130.256 20.6718C124.784 20.6718 120.711 25.1517 120.711 31.0397C120.711 36.9277 124.784 41.4077 130.256 41.4077C135.728 41.4077 139.801 36.9917 139.801 31.0397ZM77.3135 56.6397H84.9494V44.0957C87.4947 46.2078 90.6128 47.4238 94.2398 47.4238C103.021 47.4238 109.83 40.2558 109.83 31.1038C109.83 21.9518 102.958 14.7838 94.2398 14.7838C90.4219 14.7838 87.2402 16.0637 84.6312 18.3677V15.4238H77.3135V56.6397ZM93.349 20.6718C98.8214 20.6718 102.894 25.1517 102.894 31.0397C102.894 36.9277 98.8214 41.4077 93.349 41.4077C87.8765 41.4077 83.804 36.9277 83.804 31.0397C83.804 25.1517 87.8765 20.6718 93.349 20.6718Z" fill="current"/>
<path d="M63.6328 32C63.6328 49.664 49.3791 64 31.8164 64C14.2537 64 0 49.664 0 32C0 14.336 14.2537 0 31.8164 0C49.3791 0 63.6328 14.336 63.6328 32ZM37.1616 16.96V33.024L26.0258 16.96H16.8627V47.04H26.5349V30.976L37.6706 47.04H46.8338V16.96H37.1616Z" fill="current"/>
</svg>
